<?xml version="1.0" encoding="utf-8"?>
<!-- Generator: Adobe Illustrator 25.2.0, SVG Export Plug-In . SVG Version: 6.00 Build 0)  -->
<svg version="1.1" id="Layer_1" xmlns="http://www.w3.org/2000/svg" xmlns:xlink="http://www.w3.org/1999/xlink" x="0px" y="0px"
	 viewBox="0 0 20 20" style="enable-background:new 0 0 20 20;" xml:space="preserve">
<style type="text/css">
	.st0{fill:#FFFFFF;}
</style>
<g>
	<path class="st0" d="M18.4,5.19c0-1.69-1.37-3.07-3.07-3.07c0,0-0.15,0-0.32,0s-0.39,0.04-0.39,0.34s0,0.94,0,0.94
		c0,0.23-0.18,0.41-0.41,0.41h-1.26c-0.23,0-0.41-0.18-0.41-0.41V2.46c0-0.19-0.15-0.34-0.34-0.34H8.03c-0.17,0-0.3,0.14-0.3,0.3
		v0.94c0,0.25-0.2,0.45-0.45,0.45h-1.1c-0.25,0-0.45-0.2-0.45-0.45c0,0-0.02-0.9-0.02-0.94c0-0.04-0.01-0.3-0.25-0.3
		c-0.25,0-0.64,0-0.64,0c-1.69,0-3.07,1.37-3.07,3.07L1.47,15.7c0,1.69,1.37,3.07,3.07,3.07H15.7c1.69,0,3.07-1.37,3.07-3.07
		L18.4,5.19z M16.47,16.71H3.88c-0.63,0-1.15-0.4-1.15-0.9L3,8.02c0-0.5,0.52-0.9,1.15-0.9h11.94c0.63,0,1.15,0.4,1.15,0.9
		l0.39,7.79C17.62,16.31,17.1,16.71,16.47,16.71z"/>
	<path class="st0" d="M6.97,3.24H6.49c-0.19,0-0.35-0.16-0.35-0.35V1.36c0-0.19,0.16-0.35,0.35-0.35h0.48
		c0.19,0,0.35,0.16,0.35,0.35v1.53C7.32,3.08,7.16,3.24,6.97,3.24z"/>
	<path class="st0" d="M13.82,3.22h-0.47C13.16,3.22,13,3.07,13,2.88v-1.5c0-0.19,0.15-0.35,0.35-0.35h0.47
		c0.19,0,0.35,0.15,0.35,0.35v1.5C14.16,3.07,14.01,3.22,13.82,3.22z"/>
	<path class="st0" d="M14.83,14.99h-2.47c-0.47,0-0.86-0.39-0.86-0.86l0-1.75c0-0.47,0.39-0.86,0.86-0.86h2.4
		c0.47,0,0.86,0.39,0.86,0.86l0.07,1.75C15.69,14.6,15.3,14.99,14.83,14.99z"/>
</g>
</svg>
