<svg xmlns="http://www.w3.org/2000/svg" viewBox="0 0 15.44 14.78"><defs><style>.cls-1{fill:#fff;}</style></defs><g id="Layer_2" data-name="Layer 2"><g id="Profile"><path class="cls-1" d="M13.59,1.36A2.3,2.3,0,0,0,12.54,1c-.31,0-.62.08-.93.09C10.59,1.19,9,.05,8.89,0s-.17.06-.14.15a7.43,7.43,0,0,0,.73,1.12,2.21,2.21,0,0,0,.84.52c.69.28,1.43.41,2.13.68a1.61,1.61,0,0,1,.7.44,1.25,1.25,0,0,1-.06,1.45,3.41,3.41,0,0,1-.6.6.94.94,0,0,1-.67,0l0,.06a5.64,5.64,0,0,0-8,0L3.91,5a1,1,0,0,1-.65.06,2.75,2.75,0,0,1-.91-.71A1.26,1.26,0,0,1,2.3,2.93,1.66,1.66,0,0,1,3,2.48c.7-.26,1.44-.39,2.14-.67A2.15,2.15,0,0,0,6,1.28,6.48,6.48,0,0,0,6.73.16c0-.11,0-.19-.19-.15S4.86,1.19,3.83,1.13C3.52,1.12,3.22,1,2.9,1a2.26,2.26,0,0,0-1,.32A3.59,3.59,0,0,0,.29,5.92a4.23,4.23,0,0,0,1.6,1.8,1.56,1.56,0,0,1,.32.76,5.68,5.68,0,0,0,11.21,1.75,7.21,7.21,0,0,0,.11-1.13,6.83,6.83,0,0,0-.06-.79v0a1.62,1.62,0,0,1,.34-.79h0a4.18,4.18,0,0,0,1.37-1.63A3.58,3.58,0,0,0,13.59,1.36Z"/></g></g></svg>