<svg xmlns="http://www.w3.org/2000/svg" width="64.667" height="60.473" viewBox="0 0 64.667 60.473">
  <path id="Dance" d="M80.359,403.518a3.791,3.791,0,0,1,3.117-4.714c4.068-.832,33-5.177,33-5.177s6.932-2.126,6.932,4.437,3.381,44.879,3.381,44.879-2.773,6.563-11.831,6.563-9.777-6.933-9.742-8.5.919-9.1,8.869-9.1c0,0,4.447-.392,6.249,1.41s1.579-.571,1.579-.571l-2.11-20.138s-.246-1.6-3.081-1.232-31.3,4.806-31.3,4.806-1.849,0-1.849,2.958V446.5s-.624,7.271-12.329,7.271c-8.192,0-9.116-8.38-9.116-8.38s-.37-9.244,8.134-9.244,7.746,2.576,9.367,2.588c.734.006.734-.551.734-1.989Z" transform="translate(-62.122 -393.298)" fill="#fff"/>
</svg>
