<svg xmlns="http://www.w3.org/2000/svg" width="74.692" height="46.698" viewBox="0 0 74.692 46.698">
  <g id="E-Sports" transform="translate(-335.752 -400.186)">
    <g id="Group_37" data-name="Group 37">
      <g id="Group_36" data-name="Group 36">
        <path id="Path_106" data-name="Path 106" d="M402.124,408.135a13.346,13.346,0,0,0-12.2-7.949H373.1v30.505h11.093s5.362-.739,5.731,3.513,7.4,15.9,15.9,11.832c0,0,4.622-1.294,4.622-9.984S402.124,408.135,402.124,408.135Zm-17.548,9.116A3.218,3.218,0,0,1,381.618,414a2.975,2.975,0,1,1,5.916,0A3.218,3.218,0,0,1,384.576,417.251Zm6.473,6.647a3.289,3.289,0,0,1-2.958-3.321,2.966,2.966,0,1,1,5.916,0A3.289,3.289,0,0,1,391.049,423.9Zm0-12.632a3.174,3.174,0,1,1,2.958-3.178A3.154,3.154,0,0,1,391.049,411.266Zm6.368,5.985A3.219,3.219,0,0,1,394.459,414a2.975,2.975,0,1,1,5.916,0A3.218,3.218,0,0,1,397.417,417.251Z" fill="#fff"/>
        <path id="Path_107" data-name="Path 107" d="M356.274,400.186a13.346,13.346,0,0,0-12.2,7.949s-8.32,19.228-8.32,27.917,4.622,9.984,4.622,9.984c8.505,4.067,15.53-7.58,15.9-11.832s5.731-3.513,5.731-3.513H373.1V400.186Z" fill="#fff"/>
      </g>
    </g>
    <line id="Line_41" data-name="Line 41" y2="11.882" transform="translate(352.872 411.449)" fill="none" stroke="#121426" stroke-linecap="round" stroke-miterlimit="10" stroke-width="3.812"/>
    <line id="Line_42" data-name="Line 42" x1="11.882" transform="translate(346.931 417.251)" fill="none" stroke="#121426" stroke-linecap="round" stroke-miterlimit="10" stroke-width="3.812"/>
  </g>
</svg>
