<svg xmlns="http://www.w3.org/2000/svg" width="56.513" height="60.163" viewBox="0 0 56.513 60.163">
  <path id="Entertainment" d="M120.42,484.468a50.315,50.315,0,0,1-19.975,2l-6.621,0c-9.556.828-13.121-.671-17.879-2a4.413,4.413,0,0,0-5.585,4.22v27.719c0,15.184,15.349,23.748,23.251,27.14a11.692,11.692,0,0,0,9.143,0c7.9-3.392,24.119-11.8,24.119-26.987L126,488.688A4.413,4.413,0,0,0,120.42,484.468Zm-41.88,17.18a21.6,21.6,0,0,1,5.845-4.024,2.03,2.03,0,0,1,1.82.165,15.769,15.769,0,0,1,5.651,6.47,1.948,1.948,0,0,1-1.58,2.672c-2.925.336-8.064.422-11.634-2.406A1.852,1.852,0,0,1,78.54,501.648ZM98.2,533.576c-8.182,0-11.7-5.008-13.171-8.706a1.68,1.68,0,0,1,2.291-2.124,25.884,25.884,0,0,0,22.027-.139,1.542,1.542,0,0,1,2.105,1.949C110.058,528.278,106.587,533.576,98.2,533.576Zm18.825-28.96c-3.517,2.73-8.564,2.648-11.46,2.317A1.994,1.994,0,0,1,104,504.2a15.514,15.514,0,0,1,5.626-6.413,2.018,2.018,0,0,1,1.82-.165,21.26,21.26,0,0,1,5.792,4.013A1.971,1.971,0,0,1,117.028,504.616Z" transform="translate(-70.36 -484.315)" fill="#fff"/>
</svg>
