<svg xmlns="http://www.w3.org/2000/svg" width="58.156" height="58.156" viewBox="0 0 58.156 58.156">
  <g id="Football" transform="translate(-341.749 -301.052)">
    <circle id="Ellipse_27" data-name="Ellipse 27" cx="27.401" cy="27.401" r="27.401" transform="translate(343.427 302.73)" fill="#fff"/>
    <path id="Path_123" data-name="Path 123" d="M370.138,318.876l-9.8,7.121a1.173,1.173,0,0,0-.426,1.311l3.744,11.523a1.174,1.174,0,0,0,1.116.81h12.115a1.174,1.174,0,0,0,1.116-.81l3.743-11.523a1.173,1.173,0,0,0-.426-1.311l-9.8-7.121A1.172,1.172,0,0,0,370.138,318.876Z" fill="none" stroke="#121426" stroke-miterlimit="10" stroke-width="3.812"/>
    <path id="Path_124" data-name="Path 124" d="M362.1,304.151l6.089,5.315a4.181,4.181,0,0,0,5.371.105l6.5-5.239" fill="none" stroke="#121426" stroke-miterlimit="10" stroke-width="3.812"/>
    <path id="Path_125" data-name="Path 125" d="M392.849,313.963l-3.173,7.434a4.178,4.178,0,0,0,1.559,5.14l6.993,4.567" fill="none" stroke="#121426" stroke-miterlimit="10" stroke-width="3.812"/>
    <path id="Path_126" data-name="Path 126" d="M361.1,356.594l-.965-8.025a4.179,4.179,0,0,0-3.918-3.674l-8.34-.463" fill="none" stroke="#121426" stroke-miterlimit="10" stroke-width="3.812"/>
    <path id="Path_127" data-name="Path 127" d="M393.627,344.623l-8.082.061a4.181,4.181,0,0,0-4.09,3.483l-1.394,8.235" fill="none" stroke="#121426" stroke-miterlimit="10" stroke-width="3.812"/>
    <path id="Path_128" data-name="Path 128" d="M342.9,331.729l6.936-4.149a4.181,4.181,0,0,0,1.761-5.075l-2.974-7.806" fill="none" stroke="#121426" stroke-miterlimit="10" stroke-width="3.812"/>
    <circle id="Ellipse_28" data-name="Ellipse 28" cx="27.401" cy="27.401" r="27.401" transform="translate(343.427 302.73)" fill="none" stroke="#fff" stroke-miterlimit="10" stroke-width="3.355"/>
  </g>
</svg>
