<svg xmlns="http://www.w3.org/2000/svg" width="92.524" height="51.503" viewBox="0 0 92.524 51.503">
  <g id="Racing" transform="translate(-422.433 -300.598)">
    <circle id="Ellipse_32" data-name="Ellipse 32" cx="12.524" cy="12.524" r="12.524" transform="translate(435.661 314.043)" fill="none" stroke="#fff" stroke-miterlimit="10" stroke-width="4.805"/>
    <path id="Path_140" data-name="Path 140" d="M514.957,334.455c-1.959.49-4.42,1.526-6.359,2.087-3.736,1.079-6.731,1.2-10.265,2.823A61.02,61.02,0,0,1,474.9,344.63a26.2,26.2,0,0,0-3.967.162,1.427,1.427,0,0,0-.145.016c-1.108.184-15.748,2.624-19.149,3.809-3.535,1.233,16.623-2.05,18.222-16.087s-5.472-26.82-17.4-28.321c-4.545-.572,10.5-1.954,12.952-1.9,4.3,0,3.663.524,8.3,2.546,1.559.679,3.033,1.563,4.645,2.105a23.669,23.669,0,0,0,8.332.718l5.735-.495c1.517-.05,2.881,3.022,0,5.324-3.413,3.214-11.818,6.218-13.936,6.29a1.634,1.634,0,0,0-1.272,2.571c3.449,5.009,9.881,7.727,16.064,8.532,7.163.932,14.426-1.719,21.622-1.093" fill="#fff"/>
    <circle id="Ellipse_33" data-name="Ellipse 33" cx="22.548" cy="22.548" r="22.548" transform="translate(425.637 303.801)" fill="none" stroke="#fff" stroke-miterlimit="10" stroke-width="6.407"/>
    <path id="Path_141" data-name="Path 141" d="M468.811,345.142a18.18,18.18,0,0,0-5.426,1.982l1.474-2.494Z" fill="#fff"/>
    <path id="Path_142" data-name="Path 142" d="M454.848,301.463a31.435,31.435,0,0,0,5.99,1.093l-2.851,1.052Z" fill="#fff"/>
  </g>
</svg>
