<svg xmlns="http://www.w3.org/2000/svg" width="69.313" height="71.832" viewBox="0 0 69.313 71.832">
  <path id="Skating" d="M222.035,479.721c-6.086-5.73-17.565-6.065-23.954.72l-35.195,37.377c-6.39,6.786-8.2,15.035.72,23.955,8.556,8.534,17.565,6.065,23.955-.721l35.194-37.377C229.145,496.89,227.278,484.964,222.035,479.721ZM197.5,485.3c2.225-2.363,4.6.289,4.6.289,2.253,2.122,1.663,3.8,1.1,4.507a1.906,1.906,0,0,0-.382,1.507l3.844,3.62.18.17,3.845,3.62a1.9,1.9,0,0,0,1.481-.472c.676-.608,2.311-1.3,4.565.824,0,0,2.79,2.213.565,4.576l-5.435,5.772s-1.73,1.067-3.929-1-1.6-3.477-1.254-4.4.748-.9.075-1.952a28.729,28.729,0,0,0-3.276-3.4l0,0-.089-.085-.091-.084,0,0a28.567,28.567,0,0,0-3.589-3.067c-1.086-.608-1.047-.209-1.943.192S195.5,497,193.3,494.929s-1.238-3.862-1.238-3.862Zm-12.975,53.626s-1.73,1.067-3.929-1-1.6-3.477-1.254-4.4.747-.9.075-1.952a28.729,28.729,0,0,0-3.276-3.4l0,0-.088-.085-.092-.084,0,0a28.647,28.647,0,0,0-3.589-3.066c-1.086-.608-1.047-.209-1.943.192s-2.264,1.083-4.463-.987-1.238-3.862-1.238-3.862l5.435-5.772c2.225-2.363,4.6.289,4.6.289,2.253,2.122,1.663,3.8,1.1,4.507a1.9,1.9,0,0,0-.382,1.507l3.844,3.62.18.17,3.845,3.62a1.9,1.9,0,0,0,1.481-.472c.676-.608,2.311-1.3,4.565.824,0,0,2.79,2.213.565,4.576Z" transform="translate(-157.498 -475.387)" fill="#fff"/>
</svg>
