<svg xmlns="http://www.w3.org/2000/svg" width="70.089" height="46.594" viewBox="0 0 70.089 46.594">
  <g id="Water_Sports" data-name="Water Sports" transform="translate(-429.548 -397.897)">
    <path id="Path_121" data-name="Path 121" d="M429.548,442.349a90.833,90.833,0,0,0,26.659-28.331c11.369-18.618,25.057-17.072,31.282-14.79a.551.551,0,0,1-.249,1.064c-3.852-.4-10.019-.232-14.051,3.959a.7.7,0,0,0,.62,1.178c3.1-.579,9.083-.988,11.566,3.7,3.12,5.882,1.288,13.348-6.308,12.436a.789.789,0,0,1-.3-1.467c2.13-1.235,4.673-3.712,1.324-7.642-5.09-5.97-15.563.979-12.823,11.746,2.066,8.116,11.7,16.787,24.024,18.386a.888.888,0,0,1-.046,1.767,68.923,68.923,0,0,1-14.19-.577c-16.312-2.265-19.283-9.4-46.9-.188" fill="#fff"/>
    <path id="Path_122" data-name="Path 122" d="M488.164,405.892c3.006,1.729,7.274,5.365,6.553,11.857a2.187,2.187,0,0,0,.378,1.493,2.679,2.679,0,0,0,2.55,1.159c2.414-.2,1.957-2.675,1.957-2.675s-.11-10.918-11.077-12.834A.54.54,0,0,0,488.164,405.892Z" fill="#fff"/>
  </g>
</svg>
