<svg xmlns="http://www.w3.org/2000/svg" width="59.096" height="64.156" viewBox="0 0 59.096 64.156">
  <g id="Winter_Sports" data-name="Winter Sports" transform="translate(-243.04 -378.966)">
    <circle id="Ellipse_29" data-name="Ellipse 29" cx="8.357" cy="8.357" r="8.357" transform="translate(264.22 402.815)" fill="#fff"/>
    <path id="Path_129" data-name="Path 129" d="M277.862,378.966a3.34,3.34,0,0,0-3.262,3.679c.035,1.416.2,2.284.117,2.72-.134.68-.651.36-.85.219-.326-.231-4.056-2.685-4.056-2.685A2.908,2.908,0,0,0,267,387.984c.924.66,6.541,4.22,7.059,5.776s.581,1.662.581,1.662.57,7.081-.247,8.089l6.973.069s-.7-.614-.645-1.074-.047-6.968-.047-6.968a5.279,5.279,0,0,1,1.543-3.128c1.312-1.062,6.109-4.39,6.109-4.39s1.5-1.957.224-3.755a2.961,2.961,0,0,0-3.833-.888c-.549.325-3.394,2.484-3.394,2.484s-1.033.8-.844-.408c.123-.787.015-.461.015-.461l0-3.41S280.591,379.774,277.862,378.966Z" transform="translate(-5.279)" fill="#fff"/>
    <path id="Path_130" data-name="Path 130" d="M245.39,396.937a3.34,3.34,0,0,0,1.385,4.718c1.219.722,2.043,1.041,2.367,1.345.5.475-.041.742-.265.836-.369.153-4.43,2.011-4.43,2.011a2.908,2.908,0,0,0,2.817,5.081c1.05-.432,7.049-3.3,8.644-2.913s1.716.391,1.716.391,6.3,3.277,6.723,4.505l3.762-5.872s-.893.271-1.253-.023-5.928-3.662-5.928-3.662a5.279,5.279,0,0,1-1.831-2.968c-.2-1.676-.475-7.508-.475-7.508s-.859-2.313-3.063-2.184a2.96,2.96,0,0,0-2.788,2.775c-.016.638.3,4.194.3,4.194s.126,1.3-.794.5c-.6-.523-.383-.257-.383-.257l-2.889-1.814S247.524,395.055,245.39,396.937Z" transform="translate(0 -2.74)" fill="#fff"/>
    <path id="Path_131" data-name="Path 131" d="M310.464,437.817a3.34,3.34,0,0,0-1.5-4.682c-1.237-.691-2.069-.989-2.4-1.286-.517-.462.021-.743.244-.842.365-.162,4.378-2.121,4.378-2.121a2.908,2.908,0,0,0-2.943-5.009c-1.038.458-6.964,3.476-8.568,3.128s-1.726-.348-1.726-.348-6.381-3.12-6.832-4.338l-3.615,5.964s.886-.293,1.253-.008,6.018,3.512,6.018,3.512a5.279,5.279,0,0,1,1.9,2.922c.244,1.67.662,7.494.662,7.494s.916,2.291,3.115,2.108a2.96,2.96,0,0,0,2.719-2.844c0-.638-.407-4.186-.407-4.186s-.158-1.294.782-.519c.615.507.389.248.389.248l2.932,1.741S308.377,439.753,310.464,437.817Z" transform="translate(-10.394 -10.135)" fill="#fff"/>
    <path id="Path_132" data-name="Path 132" d="M278.53,455.187a3.34,3.34,0,0,1-3.262-3.679c.036-1.416.2-2.283.118-2.72-.134-.68-.651-.36-.85-.219-.326.231-4.056,2.686-4.056,2.686a2.909,2.909,0,0,1-2.809-5.086c.923-.66,6.54-4.219,7.059-5.776s.581-1.662.581-1.662.57-7.081-.247-8.089l6.974-.069s-.7.613-.646,1.073-.046,6.968-.046,6.968a5.278,5.278,0,0,0,1.542,3.128c1.312,1.061,6.109,4.39,6.109,4.39s1.5,1.956.224,3.754a2.96,2.96,0,0,1-3.833.889c-.549-.326-3.393-2.484-3.393-2.484s-1.033-.8-.845.408c.123.787.015.461.015.461l0,3.41S281.259,454.379,278.53,455.187Z" transform="translate(-5.435 -12.065)" fill="#fff"/>
    <path id="Path_133" data-name="Path 133" d="M312.017,399.893a3.339,3.339,0,0,0-4.747-1.275c-1.251.664-1.952,1.2-2.381,1.319-.668.184-.613-.421-.575-.662.061-.395.59-4.829.59-4.829a2.908,2.908,0,0,0-5.8-.241c-.178,1.121-.853,7.736-2.014,8.9s-1.227,1.262-1.227,1.262-6.081,3.672-7.348,3.391l3.053,6.271s.234-.9.673-1.057,6.213-3.154,6.213-3.154a5.277,5.277,0,0,1,3.488-.017c1.536.7,6.657,3.505,6.657,3.505s2.422.471,3.46-1.476a2.96,2.96,0,0,0-.917-3.826c-.536-.346-3.738-1.927-3.738-1.927s-1.173-.568-.012-.937c.759-.241.419-.193.419-.193l3.053-1.521S312.514,402.7,312.017,399.893Z" transform="translate(-10.63 -2.944)" fill="#fff"/>
    <path id="Path_134" data-name="Path 134" d="M243.872,435.325a3.341,3.341,0,0,0,4.748,1.276c1.25-.665,1.952-1.2,2.381-1.32.669-.184.613.421.575.662-.061.395-.59,4.829-.59,4.829a2.908,2.908,0,0,0,5.8.241c.178-1.121.854-7.736,2.014-8.9s1.228-1.262,1.228-1.262,6.08-3.672,7.347-3.391l-3.053-6.27s-.234.9-.673,1.057-6.213,3.154-6.213,3.154a5.277,5.277,0,0,1-3.488.017c-1.536-.7-6.657-3.505-6.657-3.505s-2.422-.471-3.46,1.477a2.961,2.961,0,0,0,.917,3.826c.536.346,3.738,1.927,3.738,1.927s1.173.568.012.937c-.759.241-.419.193-.419.193l-3.053,1.521S243.375,432.523,243.872,435.325Z" transform="translate(-0.1 -9.872)" fill="#fff"/>
  </g>
</svg>
